<?xml version="1.0" encoding="UTF-8" standalone="no"?>
<svg
   xmlns:dc="http://purl.org/dc/elements/1.1/"
   xmlns:cc="http://creativecommons.org/ns#"
   xmlns:rdf="http://www.w3.org/1999/02/22-rdf-syntax-ns#"
   xmlns:svg="http://www.w3.org/2000/svg"
   xmlns="http://www.w3.org/2000/svg"
   xmlns:sodipodi="http://sodipodi.sourceforge.net/DTD/sodipodi-0.dtd"
   xmlns:inkscape="http://www.inkscape.org/namespaces/inkscape"
   height="120px"
   version="1.1"
   viewBox="0 0 120 120"
   width="120px"
   x="0px"
   y="0px"
   id="svg2"
   inkscape:version="0.47 r22583"
   sodipodi:docname="qt.svg">
  <metadata
     id="metadata18">
    <rdf:RDF>
      <cc:Work
         rdf:about="">
        <dc:format>image/svg+xml</dc:format>
        <dc:type
           rdf:resource="http://purl.org/dc/dcmitype/StillImage" />
      </cc:Work>
    </rdf:RDF>
  </metadata>
  <defs
     id="defs16">
    <inkscape:perspective
       sodipodi:type="inkscape:persp3d"
       inkscape:vp_x="0 : 22 : 1"
       inkscape:vp_y="0 : 1000 : 0"
       inkscape:vp_z="44 : 22 : 1"
       inkscape:persp3d-origin="22 : 14.666667 : 1"
       id="perspective2836" />
  </defs>
  <sodipodi:namedview
     pagecolor="#ffffff"
     bordercolor="#666666"
     borderopacity="1"
     objecttolerance="10"
     gridtolerance="10"
     guidetolerance="10"
     id="namedview14"
     showgrid="false" />
  <g
     transform="translate(-188.57143,-372.36218)"
     id="g3">
    <path
       d="m 308.57143,432.36218 c 0,33.13709 -26.86292,60 -60,60 -33.13709,0 -60,-26.86291 -60,-60 0,-33.13708 26.86291,-60 60,-60 33.13708,0 60,26.86292 60,60 z"
       style="fill:#bf15d1"
       id="path5"
       sodipodi:nodetypes="cccccccc" />
    <path
       d="m 305.57143,432.36218 c 0,31.48024 -43.70252,-18.76144 -75.18275,-18.76144 -31.48024,0 -38.81725,50.24168 -38.81725,18.76144 0,-31.48023 25.51976,-57 57,-57 31.48023,0 57,25.51977 57,57 z"
       style="fill:#a211b1"
       id="path7" />
    <path
       d="m 305.57143,432.36218 c 0,31.48024 -25.51977,57 -57,57 -31.48024,0 -57,-25.51976 -57,-57 0,-31.48023 21.59119,16.92857 53.07143,16.92857 31.48023,0 60.92857,-48.4088 60.92857,-16.92857 z"
       style="fill:#da39eb"
       id="path11" />
    <path
       d="m 269.71074,416.98485 c 5.03662,0 10.13834,1.65343 11.11168,5.3034 l 4.04061,15.15209 c 0.97334,3.64997 -7.08521,7.82878 -12.12183,7.82878 -5.03662,0 -3.23028,-5.02395 -5.05077,-8.33386 l -5.55584,-10.10133 c -1.82048,-3.3099 2.53953,-9.84908 7.57615,-9.84908 z"
       style="fill:#e888f3"
       id="path13" />
    <path
       id="path17"
       style="fill:#e888f3"
       d="m 210.94944,440.45303 c -2.44685,-3.19814 -3.87127,-7.2377 -2.01729,-9.62195 l 7.69645,-9.8977 c 1.85398,-2.38424 8.4329,0.71066 10.87976,3.9088 2.44686,3.19815 -1.63344,4.48223 -2.85909,7.23984 l -3.74047,8.4158 c -1.22564,2.75762 -7.5125,3.15336 -9.95936,-0.0448 z" />
  </g>
</svg>
