<?xml version="1.0" encoding="UTF-8" standalone="no"?>
<!-- Created with Inkscape (http://www.inkscape.org/) -->

<svg
   xmlns:dc="http://purl.org/dc/elements/1.1/"
   xmlns:cc="http://creativecommons.org/ns#"
   xmlns:rdf="http://www.w3.org/1999/02/22-rdf-syntax-ns#"
   xmlns:svg="http://www.w3.org/2000/svg"
   xmlns="http://www.w3.org/2000/svg"
   xmlns:sodipodi="http://sodipodi.sourceforge.net/DTD/sodipodi-0.dtd"
   xmlns:inkscape="http://www.inkscape.org/namespaces/inkscape"
   id="svg2"
   version="1.1"
   inkscape:version="0.48.2 r9819"
   width="200"
   height="77"
   xml:space="preserve"
   sodipodi:docname="available-android-market.svg"
   inkscape:export-filename="/home/svenni/Prosjekter/Programmer/Spill/reaktor/images/available-android-market.png"
   inkscape:export-xdpi="224.41559"
   inkscape:export-ydpi="224.41559"><metadata
     id="metadata8"><rdf:RDF><cc:Work
         rdf:about=""><dc:format>image/svg+xml</dc:format><dc:type
           rdf:resource="http://purl.org/dc/dcmitype/StillImage" /><dc:title></dc:title></cc:Work></rdf:RDF></metadata><defs
     id="defs6"><clipPath
       clipPathUnits="userSpaceOnUse"
       id="clipPath18"><path
         d="m 0,0 4535,0 0,613.645 -4535,0 L 0,0 z"
         id="path20"
         inkscape:connector-curvature="0" /></clipPath></defs><sodipodi:namedview
     pagecolor="#ffffff"
     bordercolor="#666666"
     borderopacity="1"
     objecttolerance="10"
     gridtolerance="10"
     guidetolerance="10"
     inkscape:pageopacity="0"
     inkscape:pageshadow="2"
     inkscape:window-width="1680"
     inkscape:window-height="1030"
     id="namedview4"
     showgrid="false"
     fit-margin-top="0"
     fit-margin-left="0"
     fit-margin-right="0"
     fit-margin-bottom="0"
     inkscape:zoom="1.4816448"
     inkscape:cx="176.22283"
     inkscape:cy="16.203366"
     inkscape:window-x="1598"
     inkscape:window-y="-3"
     inkscape:window-maximized="1"
     inkscape:current-layer="g12" /><g
     id="g10"
     inkscape:groupmode="layer"
     inkscape:label="ink_ext_XXXXXX"
     transform="matrix(1.25,0,0,-1.25,0,77.455564)"><g
       id="g12"
       transform="scale(0.1,0.1)"><g
         id="g3497"
         transform="matrix(0.85601599,0,0,0.85601599,115.18721,44.871828)"><path
           inkscape:connector-curvature="0"
           id="path22"
           style="fill:#ffffff;fill-opacity:1;fill-rule:nonzero;stroke:none"
           d="m 1504.96,45.421647 c 0,-18.6172 -15.44,-33.77737 -34.47,-33.77737 l -1341.0008,0 c -19.0234,0 -34.4492,15.16017 -34.4492,33.77737 l 0,532.492103 c 0,18.633 15.4258,33.731 34.4492,33.731 l 1341.0008,0 c 19.03,0 34.47,-15.098 34.47,-33.731 l 0,-532.492103" /><path
           inkscape:connector-curvature="0"
           id="path24"
           style="fill:none;stroke:#cdccca;stroke-width:11.68202496;stroke-linecap:butt;stroke-linejoin:miter;stroke-miterlimit:10;stroke-opacity:1;stroke-dasharray:none"
           d="m 1504.96,45.421647 c 0,-18.6172 -15.44,-33.77737 -34.47,-33.77737 l -1341.0008,0 c -19.0234,0 -34.4492,15.16017 -34.4492,33.77737 l 0,532.492103 c 0,18.633 15.4258,33.731 34.4492,33.731 l 1341.0008,0 c 19.03,0 34.47,-15.098 34.47,-33.731 l 0,-532.492103 z" /><path
           inkscape:connector-curvature="0"
           id="path26"
           style="fill:#4e4f51;fill-opacity:1;fill-rule:nonzero;stroke:none"
           d="m 809.185,474.26575 -3.809,12.968 c -0.164,0.489 -0.402,1.286 -0.731,2.391 -0.324,1.109 -0.667,2.328 -1.031,3.668 -0.367,1.34 -0.715,2.68 -1.035,4.035 -0.32,1.352 -0.559,2.5 -0.687,3.445 -0.11,-0.593 -0.25,-1.296 -0.426,-2.109 -0.176,-0.809 -0.379,-1.668 -0.61,-2.574 -0.23,-0.902 -0.464,-1.817 -0.711,-2.735 -0.242,-0.917 -0.472,-1.781 -0.687,-2.589 -0.219,-0.813 -0.414,-1.532 -0.59,-2.149 -0.176,-0.625 -0.305,-1.086 -0.383,-1.383 l -3.765,-12.968 14.465,0 z m 6.968,-24.641 -4.051,14.102 -20.425,0 -4.094,-14.102 -12.684,0 19.25,59.492 15.36,0 19.332,-59.492 -12.688,0" /><path
           inkscape:connector-curvature="0"
           id="path28"
           style="fill:#4e4f51;fill-opacity:1;fill-rule:nonzero;stroke:none"
           d="m 842.774,449.62475 -16.011,45.309 12.929,0 7.496,-25.817 c 0.457,-1.539 0.86,-3.137 1.196,-4.797 0.34,-1.668 0.547,-3.156 0.633,-4.48 l 0.242,0 c 0.078,1.433 0.289,2.949 0.625,4.558 0.336,1.61 0.738,3.18 1.195,4.719 l 7.457,25.817 12.969,0 -16.004,-45.309 -12.727,0" /><path
           inkscape:connector-curvature="0"
           id="path30"
           style="fill:#4e4f51;fill-opacity:1;fill-rule:nonzero;stroke:none"
           d="m 898.571,470.61675 -4.097,-0.16 c -1.645,-0.055 -3.039,-0.269 -4.168,-0.648 -1.141,-0.379 -2.051,-0.887 -2.743,-1.52 -0.687,-0.637 -1.183,-1.391 -1.5,-2.269 -0.308,-0.879 -0.461,-1.856 -0.461,-2.938 0,-1.894 0.458,-3.234 1.376,-4.031 0.917,-0.801 2.121,-1.196 3.609,-1.196 1.133,0 2.187,0.196 3.16,0.586 0.973,0.387 1.816,0.969 2.531,1.743 0.715,0.769 1.278,1.714 1.684,2.836 0.402,1.125 0.609,2.414 0.609,3.871 l 0,3.726 z m 3.649,-20.992 -2.395,6.164 -0.367,0 c -0.887,-1.215 -1.781,-2.266 -2.672,-3.144 -0.891,-0.879 -1.863,-1.598 -2.918,-2.168 -1.055,-0.567 -2.234,-0.989 -3.547,-1.254 -1.312,-0.27 -2.832,-0.407 -4.558,-0.407 -1.836,0 -3.539,0.293 -5.11,0.868 -1.566,0.582 -2.922,1.461 -4.07,2.636 -1.148,1.176 -2.047,2.664 -2.695,4.461 -0.649,1.797 -0.973,3.922 -0.973,6.379 0,4.813 1.539,8.356 4.621,10.641 3.078,2.285 7.684,3.547 13.816,3.789 l 7.219,0.246 0,3.402 c 0,1.864 -0.543,3.242 -1.621,4.133 -1.086,0.891 -2.594,1.34 -4.543,1.34 -1.941,0 -3.844,-0.289 -5.691,-0.856 -1.852,-0.566 -3.707,-1.32 -5.571,-2.269 l -4.015,8.187 c 2.269,1.27 4.781,2.274 7.539,3 2.754,0.731 5.644,1.094 8.672,1.094 5.644,0 9.976,-1.324 12.988,-3.969 3.012,-2.648 4.523,-6.675 4.523,-12.078 l 0,-30.195 -8.632,0" /><path
           inkscape:connector-curvature="0"
           id="path32"
           style="fill:#4e4f51;fill-opacity:1;fill-rule:nonzero;stroke:none"
           d="m 933.864,449.62475 -12.363,0 0,45.309 12.363,0 0,-45.309 z m -12.89,57.023 c 0,1.161 0.175,2.129 0.527,2.899 0.351,0.769 0.828,1.394 1.437,1.863 0.61,0.473 1.325,0.805 2.153,0.996 0.816,0.184 1.691,0.282 2.609,0.282 0.918,0 1.781,-0.098 2.594,-0.282 0.808,-0.191 1.519,-0.523 2.129,-0.996 0.605,-0.469 1.094,-1.094 1.461,-1.863 0.359,-0.77 0.547,-1.738 0.547,-2.899 0,-1.132 -0.188,-2.093 -0.547,-2.875 -0.367,-0.789 -0.856,-1.414 -1.461,-1.886 -0.61,-0.473 -1.321,-0.809 -2.129,-1.016 -0.813,-0.199 -1.676,-0.301 -2.594,-0.301 -0.918,0 -1.793,0.102 -2.609,0.301 -0.828,0.207 -1.543,0.543 -2.153,1.016 -0.609,0.472 -1.086,1.097 -1.437,1.886 -0.352,0.782 -0.527,1.743 -0.527,2.875" /><path
           inkscape:connector-curvature="0"
           id="path34"
           style="fill:#4e4f51;fill-opacity:1;fill-rule:nonzero;stroke:none"
           d="m 944.759,449.62475 12.3594,0 0,63.0625 -12.3594,0 0,-63.0625 z" /><path
           inkscape:connector-curvature="0"
           id="path36"
           style="fill:#4e4f51;fill-opacity:1;fill-rule:nonzero;stroke:none"
           d="m 990.669,470.61675 -4.098,-0.16 c -1.644,-0.055 -3.035,-0.269 -4.168,-0.648 -1.136,-0.379 -2.051,-0.887 -2.738,-1.52 -0.687,-0.637 -1.187,-1.391 -1.5,-2.269 -0.313,-0.879 -0.465,-1.856 -0.465,-2.938 0,-1.894 0.461,-3.234 1.379,-4.031 0.918,-0.801 2.117,-1.196 3.606,-1.196 1.132,0 2.191,0.196 3.16,0.586 0.972,0.387 1.816,0.969 2.535,1.743 0.715,0.769 1.273,1.714 1.68,2.836 0.406,1.125 0.609,2.414 0.609,3.871 l 0,3.726 z m 3.648,-20.992 -2.39,6.164 -0.367,0 c -0.891,-1.215 -1.786,-2.266 -2.672,-3.144 -0.895,-0.879 -1.868,-1.598 -2.918,-2.168 -1.059,-0.567 -2.239,-0.989 -3.547,-1.254 -1.313,-0.27 -2.832,-0.407 -4.563,-0.407 -1.836,0 -3.539,0.293 -5.105,0.868 -1.567,0.582 -2.926,1.461 -4.07,2.636 -1.149,1.176 -2.047,2.664 -2.7,4.461 -0.648,1.797 -0.968,3.922 -0.968,6.379 0,4.813 1.539,8.356 4.617,10.641 3.082,2.285 7.687,3.547 13.82,3.789 l 7.215,0.246 0,3.402 c 0,1.864 -0.539,3.242 -1.621,4.133 -1.082,0.891 -2.59,1.34 -4.539,1.34 -1.946,0 -3.844,-0.289 -5.696,-0.856 -1.847,-0.566 -3.707,-1.32 -5.57,-2.269 l -4.015,8.187 c 2.273,1.27 4.781,2.274 7.542,3 2.75,0.731 5.641,1.094 8.668,1.094 5.649,0 9.977,-1.324 12.993,-3.969 3.011,-2.648 4.519,-6.675 4.519,-12.078 l 0,-30.195 -8.633,0" /><path
           inkscape:connector-curvature="0"
           id="path38"
           style="fill:#4e4f51;fill-opacity:1;fill-rule:nonzero;stroke:none"
           d="m 1033.579,485.90175 c -1.375,0 -2.547,-0.254 -3.504,-0.754 -0.957,-0.496 -1.738,-1.25 -2.332,-2.25 -0.594,-0.996 -1.027,-2.261 -1.297,-3.789 -0.269,-1.523 -0.429,-3.3 -0.484,-5.328 l 0,-1.336 c 0,-2.187 0.129,-4.136 0.383,-5.836 0.257,-1.703 0.683,-3.129 1.277,-4.277 0.594,-1.148 1.383,-2.023 2.367,-2.613 0.989,-0.598 2.215,-0.895 3.672,-0.895 2.457,0 4.262,1.168 5.41,3.508 1.149,2.34 1.723,5.738 1.723,10.195 0,4.457 -0.574,7.797 -1.723,10.028 -1.148,2.226 -2.976,3.347 -5.492,3.347 z m 4.176,9.887 c 2.324,0 4.441,-0.504 6.363,-1.5 1.918,-1 3.563,-2.488 4.945,-4.457 1.375,-1.973 2.454,-4.418 3.219,-7.34 0.77,-2.914 1.156,-6.293 1.156,-10.133 0,-3.886 -0.386,-7.297 -1.156,-10.226 -0.765,-2.938 -1.855,-5.387 -3.262,-7.36 -1.406,-1.972 -3.089,-3.457 -5.062,-4.457 -1.977,-1.004 -4.152,-1.5 -6.531,-1.5 -1.512,0 -2.856,0.161 -4.028,0.489 -1.175,0.32 -2.226,0.75 -3.144,1.293 -0.918,0.543 -1.719,1.156 -2.41,1.847 -0.692,0.688 -1.317,1.41 -1.883,2.168 l -0.856,0 -2.062,-4.988 -9.445,0 0,63.063 12.363,0 0,-14.672 c 0,-0.891 -0.027,-1.856 -0.082,-2.895 -0.055,-1.043 -0.11,-2.008 -0.16,-2.902 -0.082,-1.051 -0.16,-2.106 -0.246,-3.16 l 0.488,0 c 0.566,0.949 1.219,1.824 1.945,2.632 0.727,0.813 1.571,1.524 2.531,2.129 0.957,0.61 2.047,1.09 3.262,1.442 1.219,0.351 2.567,0.527 4.055,0.527" /><path
           inkscape:connector-curvature="0"
           id="path40"
           style="fill:#4e4f51;fill-opacity:1;fill-rule:nonzero;stroke:none"
           d="m 1061.981,449.62475 12.3672,0 0,63.0625 -12.3672,0 0,-63.0625 z" /><path
           inkscape:connector-curvature="0"
           id="path42"
           style="fill:#4e4f51;fill-opacity:1;fill-rule:nonzero;stroke:none"
           d="m 1103.56,486.99575 c -2.2,0 -4.01,-0.773 -5.46,-2.312 -1.44,-1.543 -2.27,-3.957 -2.49,-7.254 l 15.77,0 c -0.03,1.375 -0.21,2.644 -0.53,3.808 -0.33,1.16 -0.81,2.168 -1.46,3.016 -0.65,0.855 -1.46,1.523 -2.43,2.008 -0.97,0.488 -2.11,0.734 -3.4,0.734 z m 1.57,-38.18 c -3.24,0 -6.22,0.473 -8.95,1.422 -2.73,0.942 -5.08,2.367 -7.054,4.27 -1.973,1.906 -3.504,4.312 -4.598,7.219 -1.093,2.898 -1.64,6.312 -1.64,10.226 0,3.977 0.496,7.449 1.5,10.418 0.996,2.973 2.394,5.453 4.191,7.438 1.801,1.984 3.961,3.48 6.481,4.48 2.53,0.996 5.33,1.5 8.41,1.5 3,0 5.71,-0.453 8.13,-1.359 2.41,-0.907 4.47,-2.235 6.16,-3.992 1.69,-1.758 2.98,-3.911 3.89,-6.465 0.9,-2.555 1.36,-5.481 1.36,-8.774 l 0,-5.996 -27.64,0 c 0.05,-1.73 0.33,-3.293 0.83,-4.683 0.5,-1.391 1.2,-2.567 2.11,-3.528 0.9,-0.957 1.99,-1.691 3.28,-2.207 1.28,-0.512 2.75,-0.769 4.4,-0.769 1.37,0 2.68,0.074 3.91,0.222 1.22,0.149 2.42,0.371 3.58,0.672 1.16,0.297 2.31,0.668 3.45,1.113 1.13,0.442 2.29,0.965 3.48,1.563 l 0,-9.566 c -1.08,-0.567 -2.17,-1.051 -3.26,-1.442 -1.09,-0.39 -2.25,-0.723 -3.46,-0.992 -1.22,-0.274 -2.53,-0.469 -3.93,-0.59 -1.41,-0.121 -2.95,-0.18 -4.63,-0.18" /><path
           inkscape:connector-curvature="0"
           id="path44"
           style="fill:#4e4f51;fill-opacity:1;fill-rule:nonzero;stroke:none"
           d="m 1163.24,449.62475 -12.37,0 0,45.309 12.37,0 0,-45.309 z m -12.89,57.023 c 0,1.161 0.17,2.129 0.52,2.899 0.36,0.769 0.84,1.394 1.45,1.863 0.6,0.473 1.32,0.805 2.14,0.996 0.82,0.184 1.7,0.282 2.62,0.282 0.91,0 1.78,-0.098 2.59,-0.282 0.81,-0.191 1.52,-0.523 2.13,-0.996 0.6,-0.469 1.09,-1.094 1.46,-1.863 0.36,-0.77 0.54,-1.738 0.54,-2.899 0,-1.132 -0.18,-2.093 -0.54,-2.875 -0.37,-0.789 -0.86,-1.414 -1.46,-1.886 -0.61,-0.473 -1.32,-0.809 -2.13,-1.016 -0.81,-0.199 -1.68,-0.301 -2.59,-0.301 -0.92,0 -1.8,0.102 -2.62,0.301 -0.82,0.207 -1.54,0.543 -2.14,1.016 -0.61,0.472 -1.09,1.097 -1.45,1.886 -0.35,0.782 -0.52,1.743 -0.52,2.875" /><path
           inkscape:connector-curvature="0"
           id="path46"
           style="fill:#4e4f51;fill-opacity:1;fill-rule:nonzero;stroke:none"
           d="m 1213.44,449.62475 -12.36,0 0,26.465 c 0,3.269 -0.49,5.722 -1.48,7.355 -0.99,1.633 -2.56,2.457 -4.72,2.457 -1.62,0 -2.97,-0.328 -4.05,-0.976 -1.09,-0.645 -1.94,-1.61 -2.58,-2.879 -0.64,-1.27 -1.09,-2.836 -1.35,-4.699 -0.28,-1.868 -0.41,-4 -0.41,-6.403 l 0,-21.32 -12.36,0 0,45.309 9.44,0 1.66,-5.789 0.69,0 c 0.65,1.156 1.44,2.156 2.37,2.996 0.93,0.836 1.96,1.523 3.06,2.066 1.11,0.539 2.28,0.938 3.53,1.195 1.24,0.254 2.51,0.387 3.81,0.387 2.21,0 4.23,-0.316 6.04,-0.953 1.8,-0.633 3.36,-1.633 4.66,-2.977 1.29,-1.355 2.29,-3.078 2.99,-5.171 0.71,-2.09 1.06,-4.602 1.06,-7.516 l 0,-29.547" /><path
           inkscape:connector-curvature="0"
           id="path48"
           style="fill:#a5d121;fill-opacity:1;fill-rule:nonzero;stroke:none"
           d="m 829.962,326.42175 -8.043,27.379 c -0.34,1.027 -0.856,2.707 -1.543,5.051 -0.684,2.332 -1.41,4.914 -2.176,7.738 -0.773,2.828 -1.5,5.664 -2.183,8.515 -0.684,2.852 -1.172,5.274 -1.457,7.27 -0.227,-1.254 -0.528,-2.738 -0.899,-4.449 -0.367,-1.707 -0.801,-3.52 -1.281,-5.434 -0.485,-1.91 -0.985,-3.832 -1.5,-5.769 -0.512,-1.946 -0.996,-3.766 -1.449,-5.481 -0.461,-1.707 -0.875,-3.222 -1.246,-4.535 -0.372,-1.309 -0.641,-2.281 -0.809,-2.906 l -7.961,-27.379 30.547,0 z m 14.719,-52.02 -8.563,29.774 -43.117,0 -8.645,-29.774 -26.777,0 40.641,125.602 32.425,0 40.813,-125.602 -26.777,0" /><path
           inkscape:connector-curvature="0"
           id="path50"
           style="fill:#a5d121;fill-opacity:1;fill-rule:nonzero;stroke:none"
           d="m 963.755,274.40175 -26.094,0 0,55.868 c 0,6.902 -1.039,12.078 -3.125,15.527 -2.078,3.453 -5.402,5.176 -9.965,5.176 -3.422,0 -6.273,-0.684 -8.554,-2.051 -2.286,-1.367 -4.098,-3.391 -5.434,-6.074 -1.344,-2.68 -2.297,-5.989 -2.867,-9.926 -0.571,-3.934 -0.856,-8.442 -0.856,-13.516 l 0,-45.004 -26.093,0 0,95.653 19.933,0 3.512,-12.235 1.453,0 c 1.367,2.45 3.035,4.567 5.004,6.332 1.969,1.77 4.117,3.223 6.461,4.368 2.336,1.136 4.82,1.976 7.441,2.519 2.621,0.539 5.305,0.813 8.043,0.813 4.676,0 8.926,-0.672 12.746,-2.012 3.821,-1.336 7.102,-3.438 9.84,-6.289 2.738,-2.852 4.852,-6.489 6.332,-10.906 1.481,-4.418 2.223,-9.711 2.223,-15.872 l 0,-62.371" /><path
           inkscape:connector-curvature="0"
           id="path52"
           style="fill:#a5d121;fill-opacity:1;fill-rule:nonzero;stroke:none"
           d="m 1023.888,293.47975 c 3.082,0 5.703,0.528 7.871,1.586 2.168,1.055 3.922,2.653 5.261,4.789 1.34,2.141 2.34,4.805 2.997,8 0.66,3.192 1.015,6.934 1.07,11.211 l 0,2.821 c 0,4.621 -0.285,8.726 -0.856,12.32 -0.574,3.594 -1.507,6.602 -2.824,9.027 -1.312,2.422 -3.082,4.262 -5.301,5.52 -2.226,1.254 -5.023,1.879 -8.39,1.879 -5.473,0 -9.496,-2.465 -12.059,-7.399 -2.57,-4.937 -3.851,-12.109 -3.851,-21.519 0,-9.414 1.296,-16.469 3.89,-21.176 2.598,-4.707 6.66,-7.059 12.192,-7.059 z m -9.496,-20.789 c -4.903,0 -9.379,1.055 -13.434,3.164 -4.047,2.11 -7.527,5.231 -10.434,9.372 -2.91,4.132 -5.175,9.281 -6.8,15.441 -1.629,6.16 -2.446,13.289 -2.446,21.391 0,8.211 0.817,15.414 2.446,21.601 1.625,6.192 3.933,11.383 6.925,15.57 2.996,4.196 6.575,7.344 10.739,9.458 4.164,2.109 8.754,3.164 13.773,3.164 3.082,0 5.902,-0.356 8.473,-1.067 2.562,-0.715 4.879,-1.715 6.929,-2.996 2.055,-1.281 3.891,-2.766 5.516,-4.453 1.629,-1.68 3.066,-3.52 4.32,-5.516 l 0.856,0 c -0.34,2.227 -0.653,4.477 -0.938,6.762 -0.289,1.938 -0.527,4.004 -0.726,6.203 -0.199,2.192 -0.305,4.231 -0.305,6.117 l 0,30.629 26.102,0 0,-133.129 -19.938,0 -5.051,12.407 -1.113,0 c -1.195,-1.942 -2.562,-3.778 -4.105,-5.516 -1.536,-1.746 -3.321,-3.242 -5.344,-4.492 -2.027,-1.258 -4.309,-2.258 -6.848,-3 -2.539,-0.739 -5.406,-1.11 -8.597,-1.11" /><path
           inkscape:connector-curvature="0"
           id="path54"
           style="fill:#a5d121;fill-opacity:1;fill-rule:nonzero;stroke:none"
           d="m 1138.26,371.85175 c 0.69,0 1.44,-0.012 2.27,-0.043 0.83,-0.028 1.62,-0.082 2.4,-0.172 0.77,-0.082 1.48,-0.168 2.13,-0.254 0.66,-0.086 1.16,-0.188 1.5,-0.301 l 0,-24.469 c -0.46,0.114 -1.08,0.227 -1.88,0.34 -0.8,0.113 -1.64,0.219 -2.53,0.301 -0.88,0.086 -1.75,0.141 -2.6,0.172 -0.86,0.027 -1.58,0.043 -2.14,0.043 -3.37,0 -6.46,-0.43 -9.28,-1.285 -2.83,-0.856 -5.25,-2.235 -7.28,-4.149 -2.02,-1.91 -3.59,-4.422 -4.7,-7.531 -1.11,-3.106 -1.67,-6.914 -1.67,-11.422 l 0,-48.68 -26.096,0 0,95.653 19.766,0 3.85,-14.375 1.28,0 c 1.37,2.453 2.85,4.679 4.45,6.675 1.6,1.997 3.38,3.692 5.35,5.094 1.96,1.395 4.19,2.481 6.67,3.246 2.48,0.774 5.32,1.157 8.51,1.157" /><path
           inkscape:connector-curvature="0"
           id="path56"
           style="fill:#a5d121;fill-opacity:1;fill-rule:nonzero;stroke:none"
           d="m 1177.41,322.39775 c 0,-9.527 1.34,-16.699 4.02,-21.515 2.68,-4.821 7.04,-7.227 13.09,-7.227 5.99,0 10.32,2.422 13.01,7.27 2.68,4.847 4.02,12.008 4.02,21.472 0,9.528 -1.34,16.641 -4.02,21.348 -2.69,4.707 -7.08,7.059 -13.18,7.059 -5.99,0 -10.31,-2.352 -12.96,-7.059 -2.65,-4.707 -3.98,-11.82 -3.98,-21.348 z m 60.75,0 c 0,-7.988 -1.02,-15.058 -3.04,-21.218 -2.03,-6.157 -4.94,-11.348 -8.73,-15.571 -3.79,-4.218 -8.41,-7.429 -13.86,-9.625 -5.45,-2.191 -11.56,-3.293 -18.35,-3.293 -6.33,0 -12.15,1.102 -17.46,3.293 -5.3,2.196 -9.88,5.407 -13.73,9.625 -3.85,4.223 -6.86,9.414 -9.02,15.571 -2.17,6.16 -3.26,13.23 -3.26,21.218 0,7.93 1.02,14.973 3.04,21.133 2.03,6.164 4.94,11.34 8.73,15.528 3.79,4.195 8.4,7.375 13.81,9.543 5.42,2.168 11.56,3.25 18.4,3.25 6.33,0 12.15,-1.082 17.45,-3.25 5.31,-2.168 9.89,-5.348 13.74,-9.543 3.85,-4.188 6.86,-9.364 9.02,-15.528 2.17,-6.16 3.26,-13.203 3.26,-21.133" /><path
           inkscape:connector-curvature="0"
           id="path58"
           style="fill:#a5d121;fill-opacity:1;fill-rule:nonzero;stroke:none"
           d="m 1277.99,274.40175 -26.09,0 0,95.653 26.09,0 0,-95.653 z m -27.2,120.379 c 0,2.453 0.37,4.492 1.11,6.121 0.74,1.625 1.75,2.934 3.04,3.934 1.28,0.996 2.79,1.695 4.53,2.094 1.74,0.402 3.58,0.601 5.52,0.601 1.93,0 3.76,-0.199 5.47,-0.601 1.71,-0.399 3.21,-1.098 4.5,-2.094 1.28,-1 2.31,-2.309 3.08,-3.934 0.76,-1.629 1.15,-3.668 1.15,-6.121 0,-2.394 -0.39,-4.422 -1.15,-6.074 -0.77,-1.652 -1.8,-2.98 -3.08,-3.977 -1.29,-0.996 -2.79,-1.71 -4.5,-2.14 -1.71,-0.43 -3.54,-0.641 -5.47,-0.641 -1.94,0 -3.78,0.211 -5.52,0.641 -1.74,0.43 -3.25,1.144 -4.53,2.14 -1.29,0.997 -2.3,2.325 -3.04,3.977 -0.74,1.652 -1.11,3.68 -1.11,6.074" /><path
           inkscape:connector-curvature="0"
           id="path60"
           style="fill:#a5d121;fill-opacity:1;fill-rule:nonzero;stroke:none"
           d="m 1334.25,293.47975 c 3.08,0 5.71,0.528 7.87,1.586 2.17,1.055 3.93,2.653 5.27,4.789 1.34,2.141 2.34,4.805 2.99,8 0.66,3.192 1.02,6.934 1.07,11.211 l 0,2.821 c 0,4.621 -0.28,8.726 -0.85,12.32 -0.57,3.594 -1.51,6.602 -2.83,9.027 -1.31,2.422 -3.08,4.262 -5.3,5.52 -2.22,1.254 -5.02,1.879 -8.39,1.879 -5.47,0 -9.49,-2.465 -12.06,-7.399 -2.57,-4.937 -3.85,-12.109 -3.85,-21.519 0,-9.414 1.3,-16.469 3.89,-21.176 2.6,-4.707 6.66,-7.059 12.19,-7.059 z m -9.49,-20.789 c -4.91,0 -9.38,1.055 -13.44,3.164 -4.04,2.11 -7.53,5.231 -10.43,9.372 -2.91,4.132 -5.18,9.281 -6.8,15.441 -1.63,6.16 -2.44,13.289 -2.44,21.391 0,8.211 0.81,15.414 2.44,21.601 1.62,6.192 3.93,11.383 6.93,15.57 2.99,4.196 6.57,7.344 10.73,9.458 4.17,2.109 8.76,3.164 13.78,3.164 3.08,0 5.9,-0.356 8.47,-1.067 2.56,-0.715 4.88,-1.715 6.93,-2.996 2.05,-1.281 3.89,-2.766 5.52,-4.453 1.62,-1.68 3.06,-3.52 4.32,-5.516 l 0.85,0 c -0.34,2.227 -0.65,4.477 -0.94,6.762 -0.28,1.938 -0.52,4.004 -0.72,6.203 -0.2,2.192 -0.31,4.231 -0.31,6.117 l 0,30.629 26.1,0 0,-133.129 -19.93,0 -5.05,12.407 -1.12,0 c -1.19,-1.942 -2.56,-3.778 -4.1,-5.516 -1.54,-1.746 -3.32,-3.242 -5.35,-4.492 -2.03,-1.258 -4.31,-2.258 -6.84,-3 -2.54,-0.739 -5.41,-1.11 -8.6,-1.11" /><path
           inkscape:connector-curvature="0"
           id="path62"
           style="fill:#4e4f51;fill-opacity:1;fill-rule:nonzero;stroke:none"
           d="m 823.63,99.183347 -27.461,98.132403 -0.774,0 c 0.344,-5.25 0.625,-10.32 0.856,-15.23 0.113,-2.109 0.215,-4.277 0.297,-6.504 0.09,-2.219 0.172,-4.418 0.262,-6.586 0.085,-2.168 0.14,-4.25 0.168,-6.246 0.031,-1.996 0.042,-3.793 0.042,-5.391 l 0,-58.175403 -23.699,0 0,125.086403 36.11,0 27.035,-95.653 0.512,0 28.746,95.653 36.109,0 0,-125.086403 -24.727,0 0,59.203403 c 0,1.484 0.008,3.168 0.039,5.047 0.028,1.886 0.075,3.882 0.129,5.992 0.055,2.109 0.129,4.25 0.215,6.418 0.086,2.168 0.156,4.277 0.211,6.332 0.231,4.789 0.43,9.777 0.602,14.969 l -0.684,0 -29.605,-97.961403 -24.383,0" /><path
           inkscape:connector-curvature="0"
           id="path64"
           style="fill:#4e4f51;fill-opacity:1;fill-rule:nonzero;stroke:none"
           d="m 970.333,143.50375 -8.645,-0.348 c -3.48,-0.113 -6.414,-0.566 -8.812,-1.367 -2.398,-0.801 -4.32,-1.871 -5.774,-3.207 -1.457,-1.344 -2.511,-2.941 -3.167,-4.789 -0.657,-1.855 -0.985,-3.926 -0.985,-6.207 0,-3.988 0.973,-6.832 2.91,-8.512 1.938,-1.683 4.477,-2.523 7.618,-2.523 2.39,0 4.621,0.414 6.667,1.238 2.059,0.828 3.84,2.059 5.356,3.684 1.508,1.621 2.687,3.617 3.547,5.984 0.855,2.371 1.285,5.094 1.285,8.176 l 0,7.871 z m 7.699,-44.320403 -5.047,13.000403 -0.773,0 c -1.879,-2.563 -3.766,-4.774 -5.645,-6.629 -1.882,-1.852 -3.933,-3.3792 -6.16,-4.5745 -2.226,-1.199303 -4.722,-2.082103 -7.484,-2.652403 -2.77,-0.5703 -5.981,-0.8554 -9.629,-0.8554 -3.879,0 -7.473,0.6093 -10.777,1.8359 -3.313,1.226603 -6.176,3.082003 -8.598,5.562403 -2.43,2.481 -4.324,5.621 -5.695,9.414 -1.368,3.789 -2.051,8.281 -2.051,13.473 0,10.156 3.254,17.64 9.75,22.461 6.504,4.816 16.23,7.484 29.179,7.996 l 15.231,0.519 0,7.18 c 0,3.938 -1.145,6.848 -3.422,8.731 -2.285,1.882 -5.48,2.824 -9.586,2.824 -4.105,0 -8.113,-0.602 -12.019,-1.797 -3.911,-1.195 -7.828,-2.801 -11.766,-4.789 l -8.473,17.277 c 4.793,2.684 10.102,4.793 15.914,6.336 5.821,1.535 11.926,2.309 18.313,2.309 11.922,0 21.058,-2.797 27.422,-8.383 6.355,-5.594 9.539,-14.094 9.539,-25.5 l 0,-63.738403 -18.223,0" /><path
           inkscape:connector-curvature="0"
           id="path66"
           style="fill:#4e4f51;fill-opacity:1;fill-rule:nonzero;stroke:none"
           d="m 1064.235,196.63275 c 0.684,0 1.442,-0.016 2.266,-0.043 0.828,-0.031 1.625,-0.082 2.394,-0.172 0.774,-0.082 1.489,-0.172 2.141,-0.254 0.652,-0.086 1.156,-0.191 1.5,-0.301 l 0,-24.468 c -0.461,0.113 -1.086,0.222 -1.887,0.339 -0.797,0.114 -1.64,0.215 -2.523,0.301 -0.883,0.086 -1.754,0.141 -2.606,0.168 -0.855,0.031 -1.574,0.043 -2.14,0.043 -3.367,0 -6.461,-0.426 -9.281,-1.281 -2.829,-0.856 -5.25,-2.238 -7.278,-4.153 -2.019,-1.906 -3.593,-4.417 -4.703,-7.527 -1.109,-3.105 -1.668,-6.914 -1.668,-11.422 l 0,-48.679403 -26.094,0 0,95.652403 19.762,0 3.852,-14.375 1.285,0 c 1.367,2.453 2.851,4.68 4.445,6.676 1.598,1.996 3.383,3.691 5.348,5.093 1.969,1.395 4.191,2.481 6.676,3.247 2.48,0.769 5.316,1.156 8.511,1.156" /><path
           inkscape:connector-curvature="0"
           id="path68"
           style="fill:#4e4f51;fill-opacity:1;fill-rule:nonzero;stroke:none"
           d="m 1106.72,151.20275 9.58,14.543 23.36,29.09 29.43,0 -34.56,-41.492 36.79,-54.160403 -30.12,0 -23.27,36.789403 -10.18,-7.016 0,-29.773403 -26.093,0 0,133.128403 26.093,0 0,-59.378 -1.37,-21.731 0.34,0" /><path
           inkscape:connector-curvature="0"
           id="path70"
           style="fill:#4e4f51;fill-opacity:1;fill-rule:nonzero;stroke:none"
           d="m 1214.92,178.06975 c -4.62,0 -8.45,-1.629 -11.51,-4.879 -3.05,-3.253 -4.8,-8.359 -5.26,-15.32 l 33.28,0 c -0.05,2.914 -0.42,5.594 -1.11,8.043 -0.69,2.457 -1.71,4.582 -3.08,6.379 -1.37,1.797 -3.08,3.207 -5.13,4.234 -2.06,1.024 -4.45,1.543 -7.19,1.543 z m 3.34,-80.597303 c -6.85,0 -13.15,0.9961 -18.91,2.992103 -5.76,2 -10.73,5.0082 -14.89,9.0232 -4.16,4.024 -7.4,9.102 -9.71,15.231 -2.31,6.133 -3.46,13.336 -3.46,21.605 0,8.387 1.05,15.715 3.16,21.988 2.11,6.274 5.06,11.508 8.86,15.7 3.79,4.191 8.35,7.343 13.69,9.457 5.33,2.109 11.25,3.164 17.75,3.164 6.33,0 12.05,-0.957 17.16,-2.867 5.1,-1.914 9.43,-4.719 13,-8.426 3.56,-3.711 6.3,-8.258 8.21,-13.649 1.92,-5.39 2.87,-11.562 2.87,-18.519 l 0,-12.668 -58.35,0 c 0.11,-3.645 0.7,-6.942 1.75,-9.883 1.06,-2.933 2.54,-5.414 4.45,-7.441 1.91,-2.024 4.22,-3.578 6.93,-4.66 2.71,-1.086 5.8,-1.629 9.28,-1.629 2.91,0 5.66,0.156 8.26,0.468 2.59,0.321 5.12,0.789 7.57,1.418 2.46,0.625 4.88,1.411 7.28,2.348 2.39,0.941 4.84,2.043 7.35,3.297 l 0,-20.192 c -2.28,-1.195 -4.57,-2.2105 -6.89,-3.0347 -2.31,-0.832 -4.74,-1.531203 -7.31,-2.101503 -2.56,-0.5665 -5.33,-0.9805 -8.3,-1.2383 -2.97,-0.2539 -6.22,-0.3828 -9.75,-0.3828" /><path
           inkscape:connector-curvature="0"
           id="path72"
           style="fill:#4e4f51;fill-opacity:1;fill-rule:nonzero;stroke:none"
           d="m 1308.15,118.25775 c 2.56,0 5.01,0.289 7.31,0.859 2.31,0.567 4.67,1.285 7.06,2.141 l 0,-19.426 c -2.45,-1.2539 -5.49,-2.292903 -9.11,-3.117203 -3.62,-0.832 -7.57,-1.2421 -11.85,-1.2421 -4.16,0 -8.04,0.4843 -11.64,1.4492 -3.59,0.9726 -6.7,2.667903 -9.32,5.094103 -2.63,2.422 -4.69,5.675 -6.2,9.757 -1.52,4.075 -2.27,9.192 -2.27,15.356 l 0,46.113 -12.49,0 0,11.039 14.37,8.727 7.53,20.191 16.68,0 0,-20.363 23.28,0 0,-19.594 -23.28,0 0,-46.113 c 0,-3.711 0.92,-6.445 2.74,-8.215 1.83,-1.769 4.22,-2.656 7.19,-2.656" /><path
           inkscape:connector-curvature="0"
           id="path74"
           style="fill:#a5d121;fill-opacity:1;fill-rule:nonzero;stroke:none"
           d="m 212.52,419.77275 460.508,0 -12.699,-197.101 1.051,-137.308703 -437.207,0 2.133,135.179703 -13.786,199.23" /><path
           inkscape:connector-curvature="0"
           id="path76"
           style="fill:#a5d121;fill-opacity:1;fill-rule:nonzero;stroke:none"
           d="m 544.552,412.57375 -6.563,0 c 0,64.278 -43.422,116.598 -96.879,116.598 -53.39,0 -96.855,-52.32 -96.855,-116.598 l -6.578,0 c 0,68.684 46.406,124.543 103.433,124.543 57.043,0 103.442,-55.859 103.442,-124.543" /><path
           inkscape:connector-curvature="0"
           id="path78"
           style="fill:none;stroke:#a5d121;stroke-width:46.72809982;stroke-linecap:butt;stroke-linejoin:miter;stroke-miterlimit:10;stroke-opacity:1;stroke-dasharray:none"
           d="m 544.552,412.57375 -6.563,0 c 0,64.278 -43.422,116.598 -96.879,116.598 -53.39,0 -96.855,-52.32 -96.855,-116.598 l -6.578,0 c 0,68.684 46.406,124.543 103.433,124.543 57.043,0 103.442,-55.859 103.442,-124.543 z" /><path
           inkscape:connector-curvature="0"
           id="path80"
           style="fill:#ffffff;fill-opacity:1;fill-rule:nonzero;stroke:none"
           d="m 442.817,117.55475 175.438,0 0,66.5391 -175.438,0 0,-66.5391 z" /><path
           inkscape:connector-curvature="0"
           id="path82"
           style="fill:#ffffff;fill-opacity:1;fill-rule:nonzero;stroke:none"
           d="m 560.114,238.17175 c 0,-4.836 3.973,-8.824 8.821,-8.824 4.91,0 8.878,3.988 8.878,8.824 0,4.918 -3.968,8.89 -8.878,8.89 -4.848,0 -8.821,-3.972 -8.821,-8.89 z m -68.008,8.89 c -4.91,0 -8.828,-3.972 -8.828,-8.89 0,-4.836 3.918,-8.824 8.828,-8.824 4.86,0 8.817,3.988 8.817,8.824 0,4.918 -3.957,8.89 -8.817,8.89 z m 126.149,-46.585 -175.438,0 c 0,31.421 16.453,55.808 41.25,69.179 l -13.187,24.032 c -1.61,2.996 -0.535,6.753 2.465,8.374 0.957,0.563 1.953,0.809 3.011,0.809 0.586,0 1.18,-0.105 1.735,-0.246 1.621,-0.504 2.883,-1.535 3.722,-2.973 l 13.633,-24.918 c 10.75,4.008 22.629,6.153 35.106,6.153 12.484,0 24.343,-2.145 35.093,-6.153 l 13.657,24.918 c 0.758,1.438 2.086,2.469 3.636,2.973 0.571,0.141 1.157,0.246 1.754,0.246 1.055,0 2.063,-0.246 3.008,-0.809 2.988,-1.621 4.117,-5.378 2.469,-8.374 l -13.199,-24.032 c 24.8,-13.371 41.285,-37.758 41.285,-69.179" /></g></g></g></svg>