<?xml version="1.0" encoding="UTF-8" standalone="no"?>
<!-- Created with Inkscape (http://www.inkscape.org/) -->

<svg
   xmlns:dc="http://purl.org/dc/elements/1.1/"
   xmlns:cc="http://creativecommons.org/ns#"
   xmlns:rdf="http://www.w3.org/1999/02/22-rdf-syntax-ns#"
   xmlns:svg="http://www.w3.org/2000/svg"
   xmlns="http://www.w3.org/2000/svg"
   xmlns:sodipodi="http://sodipodi.sourceforge.net/DTD/sodipodi-0.dtd"
   xmlns:inkscape="http://www.inkscape.org/namespaces/inkscape"
   width="1052.3622"
   height="744.09448"
   id="svg4527"
   version="1.1"
   inkscape:version="0.48.0 r9654"
   sodipodi:docname="background.svg"
   inkscape:export-filename="/home/svenni/Prosjekter/Programmer/Spill/reaktor/images/background.png"
   inkscape:export-xdpi="90"
   inkscape:export-ydpi="90">
  <defs
     id="defs4529">
    <filter
       inkscape:collect="always"
       id="filter6559"
       x="-0.98834109"
       width="2.9766822"
       y="-0.85356725"
       height="2.7071345">
      <feGaussianBlur
         inkscape:collect="always"
         stdDeviation="21.35836"
         id="feGaussianBlur6561" />
    </filter>
    <filter
       inkscape:collect="always"
       id="filter6563"
       x="-0.59614223"
       width="2.1922845"
       y="-0.83459911"
       height="2.6691982">
      <feGaussianBlur
         inkscape:collect="always"
         stdDeviation="21.35836"
         id="feGaussianBlur6565" />
    </filter>
    <filter
       inkscape:collect="always"
       id="filter6575"
       x="-0.87341769"
       width="2.7468354"
       y="-1.173655"
       height="3.3473101">
      <feGaussianBlur
         inkscape:collect="always"
         stdDeviation="21.35836"
         id="feGaussianBlur6577" />
    </filter>
    <filter
       inkscape:collect="always"
       id="filter6579"
       x="-0.65022019"
       width="2.3004404"
       y="-0.81984285"
       height="2.6396857">
      <feGaussianBlur
         inkscape:collect="always"
         stdDeviation="21.446968"
         id="feGaussianBlur6581" />
    </filter>
    <filter
       inkscape:collect="always"
       id="filter6583"
       x="-0.79908429"
       width="2.5981686"
       y="-0.89421333"
       height="2.7884267">
      <feGaussianBlur
         inkscape:collect="always"
         stdDeviation="21.35836"
         id="feGaussianBlur6585" />
    </filter>
    <filter
       inkscape:collect="always"
       id="filter6587"
       x="-1.2518986"
       width="3.5037973"
       y="-0.83459911"
       height="2.6691982">
      <feGaussianBlur
         inkscape:collect="always"
         stdDeviation="21.35836"
         id="feGaussianBlur6589" />
    </filter>
    <filter
       inkscape:collect="always"
       id="filter6591"
       x="-3.1297469"
       width="7.2594937"
       y="-1.9766823"
       height="4.9533646">
      <feGaussianBlur
         inkscape:collect="always"
         stdDeviation="21.35836"
         id="feGaussianBlur6593" />
    </filter>
    <filter
       inkscape:collect="always"
       id="filter6599"
       x="-2.3473101"
       width="5.6946201"
       y="-2.503797"
       height="6.007594">
      <feGaussianBlur
         inkscape:collect="always"
         stdDeviation="21.35836"
         id="feGaussianBlur6601" />
    </filter>
    <filter
       inkscape:collect="always"
       id="filter6603"
       x="-1.877848"
       width="4.7556961"
       y="-1.7071345"
       height="4.414269">
      <feGaussianBlur
         inkscape:collect="always"
         stdDeviation="21.35836"
         id="feGaussianBlur6605" />
    </filter>
    <filter
       inkscape:collect="always"
       id="filter6611"
       x="-0.45801172"
       width="1.9160234"
       y="-0.62594931"
       height="2.2518986">
      <feGaussianBlur
         inkscape:collect="always"
         stdDeviation="21.35836"
         id="feGaussianBlur6613" />
    </filter>
    <filter
       inkscape:collect="always"
       id="filter6619"
       x="-0.49417054"
       width="1.9883411"
       y="-0.50752649"
       height="2.015053">
      <feGaussianBlur
         inkscape:collect="always"
         stdDeviation="21.35836"
         id="feGaussianBlur6621" />
    </filter>
    <filter
       color-interpolation-filters="sRGB"
       inkscape:collect="always"
       id="filter6595-4"
       x="-0.78243673"
       width="2.5648735"
       y="-0.87341768"
       height="2.7468355">
      <feGaussianBlur
         inkscape:collect="always"
         stdDeviation="21.35836"
         id="feGaussianBlur6597-7" />
    </filter>
    <filter
       color-interpolation-filters="sRGB"
       inkscape:collect="always"
       id="filter6655-3"
       x="-0.38750002"
       width="1.775"
       y="-0.41333333"
       height="1.8266666">
      <feGaussianBlur
         inkscape:collect="always"
         stdDeviation="10.577679"
         id="feGaussianBlur6657-9" />
    </filter>
    <filter
       inkscape:collect="always"
       id="filter3835">
      <feGaussianBlur
         inkscape:collect="always"
         stdDeviation="2.0882387"
         id="feGaussianBlur3837" />
    </filter>
    <filter
       inkscape:collect="always"
       id="filter3839">
      <feGaussianBlur
         inkscape:collect="always"
         stdDeviation="2.3475624"
         id="feGaussianBlur3841" />
    </filter>
    <filter
       inkscape:collect="always"
       id="filter3847">
      <feGaussianBlur
         inkscape:collect="always"
         stdDeviation="1.7743204"
         id="feGaussianBlur3849" />
    </filter>
    <filter
       inkscape:collect="always"
       id="filter3851">
      <feGaussianBlur
         inkscape:collect="always"
         stdDeviation="3.4803979"
         id="feGaussianBlur3853" />
    </filter>
    <filter
       inkscape:collect="always"
       id="filter3859">
      <feGaussianBlur
         inkscape:collect="always"
         stdDeviation="1.8152663"
         id="feGaussianBlur3861" />
    </filter>
    <filter
       inkscape:collect="always"
       id="filter3867">
      <feGaussianBlur
         inkscape:collect="always"
         stdDeviation="1.2693215"
         id="feGaussianBlur3869" />
    </filter>
    <filter
       inkscape:collect="always"
       id="filter3871">
      <feGaussianBlur
         inkscape:collect="always"
         stdDeviation="2.6781811"
         id="feGaussianBlur3873" />
    </filter>
    <filter
       inkscape:collect="always"
       id="filter3875">
      <feGaussianBlur
         inkscape:collect="always"
         stdDeviation="2.6956022"
         id="feGaussianBlur3877" />
    </filter>
    <filter
       inkscape:collect="always"
       id="filter3879">
      <feGaussianBlur
         inkscape:collect="always"
         stdDeviation="1.8937459"
         id="feGaussianBlur3881" />
    </filter>
    <filter
       inkscape:collect="always"
       id="filter3883">
      <feGaussianBlur
         inkscape:collect="always"
         stdDeviation="1.808442"
         id="feGaussianBlur3885" />
    </filter>
    <filter
       inkscape:collect="always"
       id="filter3891">
      <feGaussianBlur
         inkscape:collect="always"
         stdDeviation="2.9573425"
         id="feGaussianBlur3893" />
    </filter>
    <filter
       inkscape:collect="always"
       id="filter3899">
      <feGaussianBlur
         inkscape:collect="always"
         stdDeviation="1.8255028"
         id="feGaussianBlur3901" />
    </filter>
    <filter
       inkscape:collect="always"
       id="filter3903">
      <feGaussianBlur
         inkscape:collect="always"
         stdDeviation="2.337326"
         id="feGaussianBlur3905" />
    </filter>
    <filter
       inkscape:collect="always"
       id="filter3907">
      <feGaussianBlur
         inkscape:collect="always"
         stdDeviation="1.5525303"
         id="feGaussianBlur3909" />
    </filter>
    <filter
       inkscape:collect="always"
       id="filter3911">
      <feGaussianBlur
         inkscape:collect="always"
         stdDeviation="1.1942541"
         id="feGaussianBlur3913" />
    </filter>
    <filter
       color-interpolation-filters="sRGB"
       inkscape:collect="always"
       id="filter3875-8">
      <feGaussianBlur
         inkscape:collect="always"
         stdDeviation="2.6956022"
         id="feGaussianBlur3877-9" />
    </filter>
    <filter
       color-interpolation-filters="sRGB"
       inkscape:collect="always"
       id="filter3859-2">
      <feGaussianBlur
         inkscape:collect="always"
         stdDeviation="1.8152663"
         id="feGaussianBlur3861-9" />
    </filter>
    <filter
       color-interpolation-filters="sRGB"
       inkscape:collect="always"
       id="filter3871-5">
      <feGaussianBlur
         inkscape:collect="always"
         stdDeviation="2.6781811"
         id="feGaussianBlur3873-4" />
    </filter>
    <filter
       color-interpolation-filters="sRGB"
       inkscape:collect="always"
       id="filter3899-6">
      <feGaussianBlur
         inkscape:collect="always"
         stdDeviation="1.8255028"
         id="feGaussianBlur3901-2" />
    </filter>
  </defs>
  <sodipodi:namedview
     id="base"
     pagecolor="#000000"
     bordercolor="#666666"
     borderopacity="1.0"
     inkscape:pageopacity="1"
     inkscape:pageshadow="2"
     inkscape:zoom="0.73267487"
     inkscape:cx="327.99693"
     inkscape:cy="410.84317"
     inkscape:document-units="px"
     inkscape:current-layer="g6742"
     showgrid="false"
     inkscape:window-width="1600"
     inkscape:window-height="1089"
     inkscape:window-x="0"
     inkscape:window-y="24"
     inkscape:window-maximized="1" />
  <metadata
     id="metadata4532">
    <rdf:RDF>
      <cc:Work
         rdf:about="">
        <dc:format>image/svg+xml</dc:format>
        <dc:type
           rdf:resource="http://purl.org/dc/dcmitype/StillImage" />
        <dc:title />
      </cc:Work>
    </rdf:RDF>
  </metadata>
  <g
     inkscape:label="Layer 1"
     inkscape:groupmode="layer"
     id="layer1"
     transform="translate(0,-308.2677)">
    <g
       id="g6742"
       style="opacity:0.75965665">
      <path
         transform="matrix(7.0789476,0,0,4.6621621,-2460.2355,-1007.3964)"
         d="m 476.3368,364.66287 c 0,27.89032 -23.22064,50.49989 -51.86475,50.49989 -28.64411,0 -51.86475,-22.60957 -51.86475,-50.49989 0,-27.89032 23.22064,-50.49989 51.86475,-50.49989 28.64411,0 51.86475,22.60957 51.86475,50.49989 z"
         sodipodi:ry="50.499889"
         sodipodi:rx="51.86475"
         sodipodi:cy="364.66287"
         sodipodi:cx="424.47205"
         id="path4551"
         style="opacity:0.4;fill:#0044aa;fill-opacity:1;stroke:none;filter:url(#filter6619)"
         sodipodi:type="arc" />
      <path
         transform="matrix(0.86086957,0,0,1.1011236,1.1868344,339.45074)"
         d="m 361.68839,346.23724 a 78.479561,60.736355 0 1 1 -156.95912,0 78.479561,60.736355 0 1 1 156.95912,0 z"
         sodipodi:ry="60.736355"
         sodipodi:rx="78.479561"
         sodipodi:cy="346.23724"
         sodipodi:cx="283.20883"
         id="path4535"
         style="opacity:0.3;fill:#0055d4;fill-opacity:1;stroke:none;filter:url(#filter3851)"
         sodipodi:type="arc" />
      <path
         transform="matrix(1.2875,0,0,1.3116883,-22.179003,137.70775)"
         d="m 409.45855,415.84521 c 0,29.02101 -24.44278,52.54719 -54.59448,52.54719 -30.15169,0 -54.59447,-23.52618 -54.59447,-52.54719 0,-29.021 24.44278,-52.54718 54.59447,-52.54718 30.1517,0 54.59448,23.52618 54.59448,52.54718 z"
         sodipodi:ry="52.547184"
         sodipodi:rx="54.594475"
         sodipodi:cy="415.84521"
         sodipodi:cx="354.86407"
         id="path4537"
         style="opacity:0.18;fill:#5599ff;fill-opacity:1;stroke:none;filter:url(#filter3871)"
         sodipodi:type="arc" />
      <path
         transform="translate(0,308.2677)"
         d="m 465.41792,479.99371 c 0,25.25205 -20.1653,45.72288 -45.04045,45.72288 -24.87515,0 -45.04044,-20.47083 -45.04044,-45.72288 0,-25.25204 20.16529,-45.72287 45.04044,-45.72287 24.87515,0 45.04045,20.47083 45.04045,45.72287 z"
         sodipodi:ry="45.722874"
         sodipodi:rx="45.040443"
         sodipodi:cy="479.99371"
         sodipodi:cx="420.37747"
         id="path4539"
         style="opacity:0.18;fill:#5599ff;fill-opacity:1;stroke:none;filter:url(#filter3859)"
         sodipodi:type="arc" />
      <path
         transform="matrix(0.92727273,0,0,1.0576923,60.550235,268.69884)"
         d="m 532.29612,413.79791 a 37.533703,35.486408 0 1 1 -75.0674,0 37.533703,35.486408 0 1 1 75.0674,0 z"
         sodipodi:ry="35.486408"
         sodipodi:rx="37.533703"
         sodipodi:cy="413.79791"
         sodipodi:cx="494.76242"
         id="path4541"
         style="opacity:0.18;fill:#00ffff;fill-opacity:1;stroke:none;filter:url(#filter3899)"
         sodipodi:type="arc" />
      <path
         transform="translate(-25.932376,294.61908)"
         d="m 285.25613,222.03482 c 0,35.80514 -33.30329,64.83094 -74.38498,64.83094 -41.08168,0 -74.38497,-29.0258 -74.38497,-64.83094 0,-35.80514 33.30329,-64.83094 74.38497,-64.83094 41.08169,0 74.38498,29.0258 74.38498,64.83094 z"
         sodipodi:ry="64.83094"
         sodipodi:rx="74.384972"
         sodipodi:cy="222.03482"
         sodipodi:cx="210.87115"
         id="path4543"
         style="opacity:0.18;fill:#1077fe;fill-opacity:1;stroke:none;filter:url(#filter3835)"
         sodipodi:type="arc" />
      <path
         transform="matrix(0.95698925,0,0,1.0632911,66.540686,290.92365)"
         d="m 341.21547,284.81845 a 63.466076,53.912045 0 1 1 -126.93216,0 63.466076,53.912045 0 1 1 126.93216,0 z"
         sodipodi:ry="53.912045"
         sodipodi:rx="63.466076"
         sodipodi:cy="284.81845"
         sodipodi:cx="277.74939"
         id="path4545"
         style="opacity:0.2;fill:#2a7fff;fill-opacity:1;stroke:none;filter:url(#filter3839)"
         sodipodi:type="arc" />
      <path
         transform="matrix(1.2105263,0,0,1.5,104.08868,189.40233)"
         d="m 199.26983,144.92012 a 64.83094,51.86475 0 1 1 -129.661882,0 64.83094,51.86475 0 1 1 129.661882,0 z"
         sodipodi:ry="51.86475"
         sodipodi:rx="64.83094"
         sodipodi:cy="144.92012"
         sodipodi:cx="134.43889"
         id="path4547"
         style="opacity:0.18;fill:#00ccff;fill-opacity:1;stroke:none;filter:url(#filter3891)"
         sodipodi:type="arc" />
      <path
         transform="matrix(1.0289855,0,0,0.78651686,-2.0571835,415.14723)"
         d="m 353.49923,452.69647 a 47.087734,60.736355 0 1 1 -94.17547,0 47.087734,60.736355 0 1 1 94.17547,0 z"
         sodipodi:ry="60.736355"
         sodipodi:rx="47.087734"
         sodipodi:cy="452.69647"
         sodipodi:cx="306.4115"
         id="path4549"
         style="opacity:0.18;fill:#2a7fff;fill-opacity:1;stroke:none;filter:url(#filter3875)"
         sodipodi:type="arc" />
      <path
         transform="translate(-31.391823,197.71389)"
         d="m 536.39071,433.58841 c 0,22.99067 -21.08189,41.62829 -47.08773,41.62829 -26.00584,0 -47.08774,-18.63762 -47.08774,-41.62829 0,-22.99067 21.0819,-41.62829 47.08774,-41.62829 26.00584,0 47.08773,18.63762 47.08773,41.62829 z"
         sodipodi:ry="41.628288"
         sodipodi:rx="47.087734"
         sodipodi:cy="433.58841"
         sodipodi:cx="489.30298"
         id="path4553"
         style="opacity:0.18;fill:#0066ff;fill-opacity:1;stroke:none;filter:url(#filter3847)"
         sodipodi:type="arc" />
      <path
         transform="matrix(1.597561,0,0,1.5333333,-389.08553,102.95294)"
         d="m 630.56621,505.24365 c 0,22.61378 -25.05385,40.94586 -55.95934,40.94586 -30.90548,0 -55.95933,-18.33208 -55.95933,-40.94586 0,-22.61377 25.05385,-40.94586 55.95933,-40.94586 30.90549,0 55.95934,18.33209 55.95934,40.94586 z"
         sodipodi:ry="40.945858"
         sodipodi:rx="55.959335"
         sodipodi:cy="505.24365"
         sodipodi:cx="574.60687"
         id="path4555"
         style="opacity:0.3;fill:#0055d4;fill-opacity:1;stroke:none;filter:url(#filter6611)"
         sodipodi:type="arc" />
      <path
         transform="matrix(0.89473684,0,0,1.125,-21.263107,216.10893)"
         d="m 653.76886,540.73004 a 25.932375,21.83779 0 1 1 -51.86475,0 25.932375,21.83779 0 1 1 51.86475,0 z"
         sodipodi:ry="21.83779"
         sodipodi:rx="25.932375"
         sodipodi:cy="540.73004"
         sodipodi:cx="627.83649"
         id="path4557"
         style="opacity:0.18;fill:#2ad4ff;fill-opacity:1;stroke:none;filter:url(#filter3911)"
         sodipodi:type="arc" />
      <path
         transform="translate(-84.621436,280.97046)"
         d="m 686.52551,517.5274 c 0,8.29172 -6.11069,15.01349 -13.64862,15.01349 -7.53792,0 -13.64862,-6.72177 -13.64862,-15.01349 0,-8.29171 6.1107,-15.01348 13.64862,-15.01348 7.53793,0 13.64862,6.72177 13.64862,15.01348 z"
         sodipodi:ry="15.013481"
         sodipodi:rx="13.648619"
         sodipodi:cy="517.5274"
         sodipodi:cx="672.87689"
         id="path4559"
         style="opacity:0.64806867000000001;fill:#2ad4ff;fill-opacity:1;stroke:none;filter:url(#filter6603)"
         sodipodi:type="arc" />
      <path
         transform="translate(-84.621436,280.97046)"
         d="m 719.28224,482.72342 c 0,5.65344 -4.88856,10.23646 -10.9189,10.23646 -6.03034,0 -10.91889,-4.58302 -10.91889,-10.23646 0,-5.65344 4.88855,-10.23647 10.91889,-10.23647 6.03034,0 10.9189,4.58303 10.9189,10.23647 z"
         sodipodi:ry="10.236465"
         sodipodi:rx="10.918895"
         sodipodi:cy="482.72342"
         sodipodi:cx="708.36334"
         id="path4561"
         style="opacity:0.64806867000000001;fill:#2ad4ff;fill-opacity:1;stroke:none;filter:url(#filter6599)"
         sodipodi:type="arc" />
      <path
         transform="matrix(0.9375,0,0,1.1395349,-70.546297,241.06964)"
         d="m 771.14694,530.49359 a 32.756683,29.34453 0 1 1 -65.51336,0 32.756683,29.34453 0 1 1 65.51336,0 z"
         sodipodi:ry="29.34453"
         sodipodi:rx="32.756683"
         sodipodi:cy="530.49359"
         sodipodi:cx="738.39026"
         id="path4563"
         style="opacity:0.18;fill:#2ad4ff;fill-opacity:1;stroke:none;filter:url(#filter3907)"
         sodipodi:type="arc" />
      <path
         transform="translate(-84.621436,280.97046)"
         d="m 799.80904,493.64233 c 0,7.16103 -3.66641,12.96619 -8.18917,12.96619 -4.52275,0 -8.18917,-5.80516 -8.18917,-12.96619 0,-7.16102 3.66642,-12.96618 8.18917,-12.96618 4.52276,0 8.18917,5.80516 8.18917,12.96618 z"
         sodipodi:ry="12.966187"
         sodipodi:rx="8.1891708"
         sodipodi:cy="493.64233"
         sodipodi:cx="791.61987"
         id="path4565"
         style="opacity:0.64806867000000001;fill:#2ad4ff;fill-opacity:1;stroke:none;filter:url(#filter6591)"
         sodipodi:type="arc" />
      <path
         transform="translate(-121.4727,241.38947)"
         d="m 825.74142,593.27722 c 0,16.96033 -9.16604,30.70939 -20.47293,30.70939 -11.30688,0 -20.47293,-13.74906 -20.47293,-30.70939 0,-16.96033 9.16605,-30.70939 20.47293,-30.70939 11.30689,0 20.47293,13.74906 20.47293,30.70939 z"
         sodipodi:ry="30.709393"
         sodipodi:rx="20.472929"
         sodipodi:cy="593.27722"
         sodipodi:cx="805.26849"
         id="path4567"
         style="opacity:0.64806867000000001;fill:#2ad4ff;fill-opacity:1;stroke:none;filter:url(#filter6587)"
         sodipodi:type="arc" />
      <path
         transform="matrix(3.5957448,0,0,2.7380952,-2222.576,-686.7521)"
         d="m 889.88993,577.58136 c 0,15.82964 -14.36014,28.6621 -32.07426,28.6621 -17.71412,0 -32.07425,-12.83246 -32.07425,-28.6621 0,-15.82964 14.36013,-28.6621 32.07425,-28.6621 17.71412,0 32.07426,12.83246 32.07426,28.6621 z"
         sodipodi:ry="28.6621"
         sodipodi:rx="32.074253"
         sodipodi:cy="577.58136"
         sodipodi:cx="857.81567"
         id="path4569"
         style="opacity:0.3;fill:#2ad4ff;fill-opacity:1;stroke:none;filter:url(#filter6583)"
         sodipodi:type="arc" />
      <path
         transform="matrix(0.84482758,0,0,1.173913,132.13275,261.6418)"
         d="m 913.09259,527.08142 c 0,17.33723 -17.72101,31.39182 -39.58099,31.39182 -21.85998,0 -39.581,-14.05459 -39.581,-31.39182 0,-17.33722 17.72102,-31.39182 39.581,-31.39182 21.85998,0 39.58099,14.0546 39.58099,31.39182 z"
         sodipodi:ry="31.391823"
         sodipodi:rx="39.580994"
         sodipodi:cy="527.08142"
         sodipodi:cx="873.5116"
         id="path4571"
         style="opacity:0.3;fill:#2ad4ff;fill-opacity:1;stroke:none;filter:url(#filter6579)"
         sodipodi:type="arc" />
      <path
         transform="translate(-487.25569,-22.028877)"
         d="m 824.37657,419.25735 c 0,12.06068 -13.13799,21.83779 -29.34453,21.83779 -16.20653,0 -29.34453,-9.77711 -29.34453,-21.83779 0,-12.06067 13.138,-21.83778 29.34453,-21.83778 16.20654,0 29.34453,9.77711 29.34453,21.83778 z"
         sodipodi:ry="21.83779"
         sodipodi:rx="29.34453"
         sodipodi:cy="419.25735"
         sodipodi:cx="795.03204"
         id="path4573"
         style="opacity:0.64806865999999996;fill:#2ad4ff;fill-opacity:1;stroke:none;filter:url(#filter6575)"
         sodipodi:type="arc" />
      <path
         transform="translate(-105.09437,301.44339)"
         d="m 754.76863,393.32498 c 0,24.12136 -22.30404,43.67558 -49.81746,43.67558 -27.51342,0 -49.81746,-19.55422 -49.81746,-43.67558 0,-24.12135 22.30404,-43.67558 49.81746,-43.67558 27.51342,0 49.81746,19.55423 49.81746,43.67558 z"
         sodipodi:ry="43.675579"
         sodipodi:rx="49.817459"
         sodipodi:cy="393.32498"
         sodipodi:cx="704.95117"
         id="path4575"
         style="opacity:0.18;fill:#0066ff;fill-opacity:1;stroke:none;filter:url(#filter3903)"
         sodipodi:type="arc" />
      <path
         transform="translate(-110.55381,92.619521)"
         d="m 670.14719,439.04785 a 32.756683,30.709393 0 1 1 -65.51337,0 32.756683,30.709393 0 1 1 65.51337,0 z"
         sodipodi:ry="30.709393"
         sodipodi:rx="32.756683"
         sodipodi:cy="439.04785"
         sodipodi:cx="637.3905"
         id="path4577"
         style="opacity:0.18;fill:#2ad4ff;fill-opacity:1;stroke:none;filter:url(#filter3867)"
         sodipodi:type="arc" />
      <path
         transform="translate(-5.459447,276.87587)"
         d="m 802.5388,482.72342 c 0,16.96033 -19.24869,30.70939 -42.99315,30.70939 -23.74446,0 -42.99314,-13.74906 -42.99314,-30.70939 0,-16.96033 19.24868,-30.70939 42.99314,-30.70939 23.74446,0 42.99315,13.74906 42.99315,30.70939 z"
         sodipodi:ry="30.709393"
         sodipodi:rx="42.993149"
         sodipodi:cy="482.72342"
         sodipodi:cx="759.54565"
         id="path4579"
         style="opacity:0.64806867000000001;fill:#0055d4;fill-opacity:1;stroke:none;filter:url(#filter6563)"
         sodipodi:type="arc" />
      <path
         transform="translate(-84.621436,280.97046)"
         d="m 738.39026,591.22998 c 0,16.58343 -11.61032,30.02696 -25.93237,30.02696 -14.32206,0 -25.93238,-13.44353 -25.93238,-30.02696 0,-16.58343 11.61032,-30.02696 25.93238,-30.02696 14.32205,0 25.93237,13.44353 25.93237,30.02696 z"
         sodipodi:ry="30.026962"
         sodipodi:rx="25.932375"
         sodipodi:cy="591.22998"
         sodipodi:cx="712.45789"
         id="path4581"
         style="opacity:0.64806867000000001;fill:#0044aa;fill-opacity:1;stroke:none;filter:url(#filter6559)"
         sodipodi:type="arc" />
      <path
         transform="matrix(0.87096774,0,0,1.0612245,70.796706,292.87712)"
         d="m 379.4316,217.94023 a 42.310719,33.439117 0 1 1 -84.62144,0 42.310719,33.439117 0 1 1 84.62144,0 z"
         sodipodi:ry="33.439117"
         sodipodi:rx="42.310719"
         sodipodi:cy="217.94023"
         sodipodi:cx="337.12088"
         id="path4583"
         style="opacity:0.18;fill:#00ccff;fill-opacity:1;stroke:none;filter:url(#filter3879)"
         sodipodi:type="arc" />
      <path
         transform="matrix(0.85000001,0,0,1.1521739,5.4594468,274.64298)"
         d="m 327.56686,225.44698 a 40.945858,31.391823 0 1 1 -81.89172,0 40.945858,31.391823 0 1 1 81.89172,0 z"
         sodipodi:ry="31.391823"
         sodipodi:rx="40.945858"
         sodipodi:cy="225.44698"
         sodipodi:cx="286.621"
         id="path4585"
         style="opacity:0.3;fill:#2a7fff;fill-opacity:1;stroke:none;filter:url(#filter3883)"
         sodipodi:type="arc" />
      <path
         transform="translate(-634.66075,-43.18423)"
         d="m 771.14694,530.49359 c 0,16.20654 -14.66566,29.34453 -32.75668,29.34453 -18.09102,0 -32.75668,-13.13799 -32.75668,-29.34453 0,-16.20654 14.66566,-29.34453 32.75668,-29.34453 18.09102,0 32.75668,13.13799 32.75668,29.34453 z"
         sodipodi:ry="29.34453"
         sodipodi:rx="32.756683"
         sodipodi:cy="530.49359"
         sodipodi:cx="738.39026"
         id="path4563-9"
         style="opacity:0.3;fill:#2ad4ff;fill-opacity:1;stroke:none;filter:url(#filter6595-4)"
         sodipodi:type="arc" />
      <path
         transform="translate(-491.35028,162.90991)"
         d="m 670.14719,439.04785 c 0,16.96033 -14.66567,30.70939 -32.75669,30.70939 -18.09101,0 -32.75668,-13.74906 -32.75668,-30.70939 0,-16.96033 14.66567,-30.70939 32.75668,-30.70939 18.09102,0 32.75669,13.74906 32.75669,30.70939 z"
         sodipodi:ry="30.709393"
         sodipodi:rx="32.756683"
         sodipodi:cy="439.04785"
         sodipodi:cx="637.3905"
         id="path4577-0"
         style="opacity:0.3;fill:#2ad4ff;fill-opacity:1;stroke:none;filter:url(#filter6655-3)"
         sodipodi:type="arc" />
      <path
         transform="matrix(-0.95078286,0.51642322,-0.50920963,-1.000823,1270.5468,1009.9748)"
         d="m 409.45855,415.84521 a 54.594475,52.547184 0 1 1 -109.18895,0 54.594475,52.547184 0 1 1 109.18895,0 z"
         sodipodi:ry="52.547184"
         sodipodi:rx="54.594475"
         sodipodi:cy="415.84521"
         sodipodi:cx="354.86407"
         id="path4537-7"
         style="opacity:0.18;fill:#5599ff;fill-opacity:1;stroke:none;filter:url(#filter3871-5)"
         sodipodi:type="arc" />
      <path
         transform="matrix(-0.88514546,0.46531442,-0.46531442,-0.88514546,1173.4804,999.4223)"
         d="m 465.41792,479.99371 a 45.040443,45.722874 0 1 1 -90.08089,0 45.040443,45.722874 0 1 1 90.08089,0 z"
         sodipodi:ry="45.722874"
         sodipodi:rx="45.040443"
         sodipodi:cy="479.99371"
         sodipodi:cx="420.37747"
         id="path4539-6"
         style="opacity:0.18;fill:#5599ff;fill-opacity:1;stroke:none;filter:url(#filter3859-2)"
         sodipodi:type="arc" />
      <path
         transform="matrix(-0.91080185,0.47880179,-0.36597763,-0.69618183,1255.2306,1040.3473)"
         d="m 353.49923,452.69647 a 47.087734,60.736355 0 1 1 -94.17547,0 47.087734,60.736355 0 1 1 94.17547,0 z"
         sodipodi:ry="60.736355"
         sodipodi:rx="47.087734"
         sodipodi:cy="452.69647"
         sodipodi:cx="306.4115"
         id="path4549-1"
         style="opacity:0.3218884;fill:#2a7fff;fill-opacity:1;stroke:none;filter:url(#filter3875-8)"
         sodipodi:type="arc" />
    </g>
  </g>
</svg>
